# xmcd
#
# Track frame offsets:
# 150
# 13479
# 32195
# 53977
# 69698
# 90036
# 110621
# 133407
# 148827
#
# Disc length: 2245 seconds
#
#
# Revision: 1
# Processed by: cddbd v1.5.2PL0 Copyright (c) Steve Scherf et al.
# Submitted via: FreeRIP 2.70 
#
DISCID=8708c309
DTITLE=Bad Meets Evil  - Hell (9)
DYEAR=2011
DGENRE=Hip Hop
TTITLE0=Bad Meets Evil - Welcome 2 Hell
TTITLE1=Bad Meets Evil - Fastlane
TTITLE2=Bad Meets Evil - The Reunion
TTITLE3=Bad Meets Evil - Above The Law
TTITLE4=Bad Meets Evil featuring Mike Epps - I'm On Everything
TTITLE5=Bad Meets Evil - A Kiss
TTITLE6=Bad Meets Evil featuring Bruno Mars - Lighters
TTITLE7=Bad Meets Evil - Take From Me
TTITLE8=Bad Meets Evil featuring Slaughterhouse - Loud Noises
EXTD=
EXTT0=
EXTT1=
EXTT2=
EXTT3=
EXTT4=
EXTT5=
EXTT6=
EXTT7=
EXTT8=
PLAYORDER=
